<svg id="Component_32_1" data-name="Component 32 – 1" xmlns="http://www.w3.org/2000/svg" width="190" height="29.633" viewBox="0 0 190 29.633">
  <path id="heart" d="M23.6,2C20.237,2,17.342,4.736,16,7.594,14.659,4.736,11.764,2,8.4,2A8.4,8.4,0,0,0,0,10.4c0,9.433,9.516,11.906,16,21.232,6.13-9.268,16-12.1,16-21.232A8.4,8.4,0,0,0,23.6,2Z" transform="translate(0 -2)" fill="#fa9cc4"/>
  <path id="heart-2" data-name="heart" d="M23.6,2C20.237,2,17.342,4.736,16,7.594,14.659,4.736,11.764,2,8.4,2A8.4,8.4,0,0,0,0,10.4c0,9.433,9.516,11.906,16,21.232,6.13-9.268,16-12.1,16-21.232A8.4,8.4,0,0,0,23.6,2Z" transform="translate(39.5 -2)" fill="#fa9cc4"/>
  <path id="heart-3" data-name="heart" d="M23.6,2C20.237,2,17.342,4.736,16,7.594,14.659,4.736,11.764,2,8.4,2A8.4,8.4,0,0,0,0,10.4c0,9.433,9.516,11.906,16,21.232,6.13-9.268,16-12.1,16-21.232A8.4,8.4,0,0,0,23.6,2Z" transform="translate(79 -2)" fill="#fa9cc4"/>
  <path id="heart-4" data-name="heart" d="M23.6,2C20.237,2,17.342,4.736,16,7.594,14.659,4.736,11.764,2,8.4,2A8.4,8.4,0,0,0,0,10.4c0,9.433,9.516,11.906,16,21.232,6.13-9.268,16-12.1,16-21.232A8.4,8.4,0,0,0,23.6,2Z" transform="translate(118.5 -2)" fill="#fa9cc4"/>
  <path id="heart-5" data-name="heart" d="M23.6,2C20.237,2,17.342,4.736,16,7.594,14.659,4.736,11.764,2,8.4,2A8.4,8.4,0,0,0,0,10.4c0,9.433,9.516,11.906,16,21.232,6.13-9.268,16-12.1,16-21.232A8.4,8.4,0,0,0,23.6,2Z" transform="translate(158 -2)" fill="#fa9cc4"/>
</svg>
