<svg id="Component_33_1" data-name="Component 33 – 1" xmlns="http://www.w3.org/2000/svg" width="105.921" height="110.259" viewBox="0 0 105.921 110.259">
  <g id="Group_48" data-name="Group 48" transform="matrix(0.966, 0.259, -0.259, 0.966, -307.679, -184.929)">
    <g id="Group_12" data-name="Group 12" transform="translate(399.7 93.833)">
      <path id="Path_267" data-name="Path 267" d="M423.5,117.374a23.536,23.536,0,1,1-23.538-23.541A23.536,23.536,0,0,1,423.5,117.374Z" transform="translate(-376.428 -93.833)" fill="#fa9cc4"/>
    </g>
    <g id="Group_13" data-name="Group 13" transform="translate(427.923 126.572)">
      <path id="Path_268" data-name="Path 268" d="M388.279,114.328a2.193,2.193,0,0,1-.856-4.211,15.627,15.627,0,0,0,5.827-4.3,2.192,2.192,0,0,1,3.352,2.826,20.093,20.093,0,0,1-7.467,5.512A2.17,2.17,0,0,1,388.279,114.328Z" transform="translate(-386.085 -105.035)" fill="#fff"/>
    </g>
    <g id="Group_14" data-name="Group 14" transform="translate(403.353 97.486)">
      <path id="Path_269" data-name="Path 269" d="M379.87,117.162a2.193,2.193,0,0,1-2.192-2.192A19.906,19.906,0,0,1,397.56,95.083a2.192,2.192,0,1,1,0,4.384,15.519,15.519,0,0,0-15.5,15.5A2.193,2.193,0,0,1,379.87,117.162Z" transform="translate(-377.678 -95.083)" fill="#fff"/>
    </g>
    <g id="Group_15" data-name="Group 15" transform="translate(364.323 117.373)">
      <circle id="Ellipse_4" data-name="Ellipse 4" cx="13.811" cy="13.811" r="13.811" fill="#fa9cc4"/>
    </g>
    <g id="Group_16" data-name="Group 16" transform="translate(382.234 136.75)">
      <path id="Path_270" data-name="Path 270" d="M371.548,112.942A1.1,1.1,0,0,1,371,110.9a9.159,9.159,0,0,0,2.373-2,1.1,1.1,0,0,1,1.672,1.42,11.506,11.506,0,0,1-2.937,2.467A1.1,1.1,0,0,1,371.548,112.942Z" transform="translate(-370.452 -108.518)" fill="#fff"/>
    </g>
    <g id="Group_17" data-name="Group 17" transform="translate(366.734 119.785)">
      <path id="Path_271" data-name="Path 271" d="M366.244,115.207a1.1,1.1,0,0,1-1.1-1.1,11.411,11.411,0,0,1,11.4-11.4,1.1,1.1,0,1,1,0,2.192,9.217,9.217,0,0,0-9.209,9.206A1.1,1.1,0,0,1,366.244,115.207Z" transform="translate(-365.148 -102.713)" fill="#fff"/>
    </g>
    <g id="Group_18" data-name="Group 18" transform="translate(399.699 152.768)">
      <circle id="Ellipse_5" data-name="Ellipse 5" cx="9.061" cy="9.061" r="9.061" fill="#fa9cc4"/>
    </g>
    <g id="Group_19" data-name="Group 19" transform="translate(410.833 163.472)">
      <path id="Path_272" data-name="Path 272" d="M381.332,122.371a1.1,1.1,0,0,1-.567-2.034,5.062,5.062,0,0,0,1.914-2.069,1.1,1.1,0,1,1,1.958.982,7.284,7.284,0,0,1-2.735,2.963A1.119,1.119,0,0,1,381.332,122.371Z" transform="translate(-380.237 -117.662)" fill="#fff"/>
    </g>
    <g id="Group_20" data-name="Group 20" transform="translate(401.526 154.595)">
      <path id="Path_273" data-name="Path 273" d="M378.149,122.956a1.1,1.1,0,0,1-1.1-1.1,7.241,7.241,0,0,1,7.233-7.236,1.1,1.1,0,0,1,0,2.192,5.048,5.048,0,0,0-5.041,5.044A1.1,1.1,0,0,1,378.149,122.956Z" transform="translate(-377.053 -114.624)" fill="#fff"/>
    </g>
  </g>
  <g id="Group_49" data-name="Group 49" transform="translate(-312.267 -99.734)">
    <g id="Group_38" data-name="Group 38" transform="translate(377.188 168.992)">
      <path id="Path_293" data-name="Path 293" d="M418.189,189.49a20.5,20.5,0,1,1-20.5-20.5A20.5,20.5,0,0,1,418.189,189.49Z" transform="translate(-377.188 -168.992)" fill="#fa9cc4"/>
    </g>
    <g id="Group_39" data-name="Group 39" transform="translate(401.746 196.109)">
      <path id="Path_294" data-name="Path 294" d="M392.584,193.079a1.807,1.807,0,0,1-.7-3.471,13.327,13.327,0,0,0,5.842-4.814,1.806,1.806,0,1,1,2.993,2.024,16.913,16.913,0,0,1-7.427,6.119A1.826,1.826,0,0,1,392.584,193.079Z" transform="translate(-390.777 -183.998)" fill="#fff"/>
    </g>
    <g id="Group_40" data-name="Group 40" transform="translate(380.802 172.606)">
      <path id="Path_295" data-name="Path 295" d="M381,189.683a1.807,1.807,0,0,1-1.807-1.807,16.9,16.9,0,0,1,16.886-16.884,1.807,1.807,0,1,1,0,3.614,13.285,13.285,0,0,0-13.272,13.27A1.805,1.805,0,0,1,381,189.683Z" transform="translate(-379.188 -170.992)" fill="#fff"/>
    </g>
  </g>
</svg>
