<svg id="Layer_2" data-name="Layer 2" xmlns="http://www.w3.org/2000/svg" width="173.922" height="80.565" viewBox="0 0 173.922 80.565">
  <g id="Layer_1" data-name="Layer 1">
    <path id="Path_323" data-name="Path 323" d="M125.925,63.205a7.225,7.225,0,0,1-2.24-.36c-1.08-.325-1.44-1.37-1.765-3.645l-3.285-22.08c-.1-.755-.325-1.115-.65-1.115s-.5.285-.79.865L107.38,57.18,97.53,37.12c-.47-.935-.675-1.12-.975-1.12s-.5.32-.61.935l-3.59,23.24c-.18,1.225-.47,2.635-1.5,2.85a4.535,4.535,0,0,1-1.08.11H89.62l-61.365-4.69-.545,2.14L97.065,66.5a.89.89,0,0,0,.965-.885v-1.7a.75.75,0,0,0-.66-.75c-.425-.055-.97-.135-1.32-.21-.61-.145-1.08-.47-1.08-1.155a14.663,14.663,0,0,1,.105-1.7l1.88-14.075h.14c1.26,2.71,3.43,6.97,3.76,7.725.43,1,3.285,6.53,4.15,8.19.575,1.08.935,1.8,1.26,1.8s.5-.32,1.335-2l7.865-16.09h.145l2.165,15.695c.145,1,.035,1.5-.18,1.55a.475.475,0,0,0-.4.4c0,.18.215.325,1.045.4,1.44.11,6.42.18,7.325.18.5,0,.935-.11.935-.4S126.25,63.205,125.925,63.205Z" transform="translate(-13.833 -18.001)" fill="#0e0d0e"/>
    <path id="Path_324" data-name="Path 324" d="M101.885.571a5.143,5.143,0,0,1,4.685,0,4.5,4.5,0,0,1,2.24,1.845,5.873,5.873,0,0,1,.03,3.195,8.03,8.03,0,0,1-3.165-.035A29.225,29.225,0,0,1,100,3.811C100.455,2.651,100.775,1.291,101.885.571Z" transform="translate(-49.978 -0.003)" fill="#0e0d0e"/>
    <path id="Path_325" data-name="Path 325" d="M93.47,9.64c2.81,1.57,6.14,2.715,9.375,2,1.54,1.08,3.215,1.945,4.815,2.92a4.1,4.1,0,0,1-2.5,2.625,13.16,13.16,0,0,1-4.61,1,17.72,17.72,0,0,1-7.785-2.12A9.845,9.845,0,0,1,88,10.185C89.825,10.03,91.64,9.75,93.47,9.64Z" transform="translate(-43.978 -4.821)" fill="#0e0d0e"/>
    <path id="Path_326" data-name="Path 326" d="M84.086,20.8c2,1.23,4.045,2.625,6.415,3.1a6.075,6.075,0,0,1-3.785,3.855c.615,1.5,1.185,3.155.685,4.75a3.487,3.487,0,0,1-3.255,2.22,3.065,3.065,0,0,0,.805-2.5,5.3,5.3,0,0,0-2.155-3c-1.55,2.28-3,4.61-4.545,6.9l-.37.545c-1.5-2.285-2.91-4.885-2.825-7.695a3.16,3.16,0,0,1,1.2-2.45c2-1.5,4.11-2.825,6.225-4.14a3.405,3.405,0,0,0,1.605-1.59Z" transform="translate(-37.504 -10.401)" fill="#0e0d0e"/>
    <path id="Path_327" data-name="Path 327" d="M106.995,27.82h.75c0,1.195.14,2.39.19,3.585,0,.625.35,1.19.35,1.815a7.541,7.541,0,0,1-2.205,5.195c-.66-1.425-1.165-3-2.38-4.1a1.69,1.69,0,0,0-1.45-.425c.15-.725.26-1.455.425-2.175a3.306,3.306,0,0,0,2.885-1.475,5.36,5.36,0,0,0,1.435-2.425Z" transform="translate(-51.103 -13.911)" fill="#0e0d0e"/>
    <path id="Path_328" data-name="Path 328" d="M12.745,57.46c1.05,1.23,2.15,2.425,3.245,3.625a.905.905,0,0,1,.245,1.085c-.565-.245-1.1-.57-1.645-.86.37.67,1,1.15,1.345,1.84a9.125,9.125,0,0,1-.265,1.2,16.66,16.66,0,0,0-1.905-.435c.6.36,1.14.81,1.7,1.22L15.09,66.6c-.665-.09-1.32-.23-2-.285a7.245,7.245,0,0,0,1.77,1.065c-.12.5-.25,1-.38,1.5-.7,0-1.395-.18-2.1-.175.625.335,1.31.5,1.945.83-.135.465-.235.94-.375,1.4a12.361,12.361,0,0,0-2.135.4c.63.175,1.27.325,1.9.5-.12.465-.235.93-.36,1.4a7.043,7.043,0,0,0-2,.37c.605.17,1.17.435,1.765.625-.1.4-.2.795-.305,1.2a21.34,21.34,0,0,0-2.295.565c.69.14,1.39.1,2.08.2-.11.5-.25,1-.36,1.5a14.929,14.929,0,0,0-2.28.625c.685.09,1.385.05,2.07.17-.06.24-.125.5-.175.73-1.715.56-3.435,1.1-5.135,1.7C8.7,73.075,10.745,65.27,12.745,57.46Z" transform="translate(-3.338 -28.731)" fill="#0e0d0e"/>
    <path id="Path_329" data-name="Path 329" d="M108.31,9.415h.07a7.491,7.491,0,0,1-.065,1.2c-3.235.735-6.565-.41-9.375-2,.18-.335.36-.675.545-1a29.225,29.225,0,0,0,5.66,1.76,8.03,8.03,0,0,0,3.165.035Z" transform="translate(-49.448 -3.811)" fill="#fc358b"/>
    <path id="Path_330" data-name="Path 330" d="M106.955,15.05a3.54,3.54,0,0,1,.765.5A7.685,7.685,0,0,1,102.64,19a13.83,13.83,0,0,1-2.725.225h-.75c-.97-.085-1.935-.24-2.9-.41-2.37-.475-4.4-1.87-6.415-3.1-1.5-1.3-3.045-2.92-3.265-5l.705-.05a9.845,9.845,0,0,0,4.76,5.85,17.72,17.72,0,0,0,7.785,2.12,13.16,13.16,0,0,0,4.61-1A3.9,3.9,0,0,0,106.955,15.05Z" transform="translate(-43.273 -5.331)" fill="#fc358b"/>
    <path id="Path_331" data-name="Path 331" d="M106.7,29.525c.935.16.75-1,1.05-1.545a10.541,10.541,0,0,1-.41,1.7Z" transform="translate(-53.328 -13.991)" fill="#fc358b"/>
    <path id="Path_332" data-name="Path 332" d="M16.6,44.98a2.175,2.175,0,0,0,1.435-.89,2.08,2.08,0,0,0,.9,1.5,2.33,2.33,0,0,0-1.525.91A2.1,2.1,0,0,0,16.6,44.98Z" transform="translate(-8.278 -22.046)" fill="#f7cea0"/>
    <path id="Path_333" data-name="Path 333" d="M27.28,59.72a2.225,2.225,0,0,0,1.435-.89,2.04,2.04,0,0,0,.9,1.5,2.355,2.355,0,0,0-1.525.9A2.135,2.135,0,0,0,27.28,59.72Z" transform="translate(-13.618 -29.416)" fill="#f7cea0"/>
    <path id="Path_334" data-name="Path 334" d="M45.09,91.325a2.22,2.22,0,0,0,1.455-.895,2.03,2.03,0,0,0,.9,1.5,2.36,2.36,0,0,0-1.53.91A2.09,2.09,0,0,0,45.09,91.325Z" transform="translate(-22.523 -45.216)" fill="#f7cea0"/>
    <path id="Path_335" data-name="Path 335" d="M93.73,27c.96.17,1.925.325,2.9.41a5.36,5.36,0,0,1-1.435,2.405,3.306,3.306,0,0,1-2.885,1.475c-.165.72-.275,1.45-.425,2.175a1.69,1.69,0,0,1,1.45.425c1.215,1.075,1.72,2.67,2.38,4.1.315.5.6,1,.9,1.5-.87.7-1.7,1.46-2.575,2.155a5.635,5.635,0,0,0-2-2.21,4.72,4.72,0,0,0-2.655-.5,3.1,3.1,0,0,0-2.185,2c-.32.62-.37,1.325-.64,1.96-.3.295-.695.5-1.025.765-.305-1-.4-2.07-.64-3.1a6.575,6.575,0,0,0-.805.68c-.83-.74-1.805-1.3-2.63-2.05,1.5-2.3,3-4.625,4.545-6.905a5.466,5.466,0,0,1,2.155,3,3.065,3.065,0,0,1-.805,2.5A3.393,3.393,0,0,0,90.6,35.6a7.064,7.064,0,0,0-.685-4.75A6.17,6.17,0,0,0,93.73,27Zm.375,2.035.64.155a10.172,10.172,0,0,0,.41-1.7c-.325.56-.14,1.7-1.075,1.545Zm-1.27,0c-.04.46.03,1.1.5,1.305a2.265,2.265,0,0,0,1.3-.335c-.575-.39-1.275-.55-1.825-.975Z" transform="translate(-40.708 -13.501)" fill="#f7cea0"/>
    <path id="Path_336" data-name="Path 336" d="M90.595,81.48c3.365.5,6.755.9,10.06,1.715a23.332,23.332,0,0,1,2.45,1.285c-.36.5-.45,1.12-.82,1.61a4.826,4.826,0,0,0-1.08,2.07c1.425-.115,1.245-2.135,2.59-2.4.59-.045.6.74.59,1.16a9.6,9.6,0,0,0,.205,3.44,2.34,2.34,0,0,0,1.15,1.695c.055-.2.105-.4.15-.6a4.37,4.37,0,0,0-.04.675,30.6,30.6,0,0,1,2.17,9.18c.345,2.15.665,4.305,1.045,6.45a3.86,3.86,0,0,1-3-.245,6.255,6.255,0,0,0-1.235-4.39c-.685-1.3-1.5-2.5-2.26-3.77a18.855,18.855,0,0,1-3.1-7.815,14.46,14.46,0,0,1-2.62,4.81,50.244,50.244,0,0,1-3.5,4.085c-1.83,1.735-3.695,3.44-5.5,5.185a27.171,27.171,0,0,0-2.84,4.5,3.721,3.721,0,0,1-1.585-.525c-.335-.205-.475-.66-.875-.765a.965.965,0,0,0,.425-.25,17.435,17.435,0,0,0,4.14-5.73c.81-2.245,1.775-4.44,2.69-6.65A15.857,15.857,0,0,1,95.48,90.51a72.045,72.045,0,0,1-8.31.285c-1.575,0-3.15.08-4.72-.065a9.743,9.743,0,0,1-1.5-.235c.715-.735,1.54-1.345,2.3-2.045a21.6,21.6,0,0,0,2.145-2.375,7.785,7.785,0,0,0,1.855-4.78c1.08.065,2.15.25,3.23.355.045-.17.1-.335.135-.5Zm6.455,7a3.84,3.84,0,0,1,2.37,2,2.54,2.54,0,0,0-.59-2.11,1.63,1.63,0,0,0-1.78.1Z" transform="translate(-40.453 -40.576)" fill="#f7cea0"/>
    <path id="Path_337" data-name="Path 337" d="M134.07,135.4c-.04.58.35,1.045.545,1.565a12.6,12.6,0,0,1,.71,8.43,2.555,2.555,0,0,1-1.295-1.275c-1.635-2.74-2.35-5.885-3.44-8.855a16,16,0,0,0,3.12.355A.5.5,0,0,0,134.07,135.4Z" transform="translate(-65.273 -67.631)" fill="#f7cea0"/>
    <path id="Path_338" data-name="Path 338" d="M80.724,137.469c.2-.14.35.12.5.22a3.57,3.57,0,0,0,2.225,1.065,64.85,64.85,0,0,1-3.06,6.445,5,5,0,0,0-.535,1.92,2.05,2.05,0,0,1-1.5-1.97c-.07-1.03.5-1.955.55-2.97a8.868,8.868,0,0,1,.67-3.07,4.84,4.84,0,0,1,1.15-1.64Z" transform="translate(-39.152 -68.716)" fill="#f7cea0"/>
    <path id="Path_339" data-name="Path 339" d="M104.15,31.06c.55.425,1.25.585,1.815.97a2.265,2.265,0,0,1-1.3.335C104.18,32.16,104.11,31.53,104.15,31.06Zm.2.4c-.08.675.73.88,1.18.5a8.5,8.5,0,0,1-1.18-.5Z" transform="translate(-52.048 -15.531)" fill="#fc358b"/>
    <path id="Path_340" data-name="Path 340" d="M60.031,51.955l.37-.545c.825.75,1.8,1.31,2.63,2.05-1,1.115-2,2.27-3,3.39-.445.445-.6,1.08-1,1.55a21.612,21.612,0,0,1-4.82,4.04q-1.685,1.36-3.25,2.865c-.715.57-1.085,1.5-1.96,1.88a9.44,9.44,0,0,1-3.18.81,8.351,8.351,0,0,1-2.455.5c.25-1.045,1.645-.86,2.26-1.5-.5-.125-1.04-.215-1.56-.305a37.234,37.234,0,0,1-4.055-.935c-.33-.13-.885-.43-.56-.85,1.07-.03,2.14.05,3.21,0-.09-.62-.585-1.255-.345-1.875a9.2,9.2,0,0,0,5.13,1.82c.88,0,1.425-.79,2.2-1.08a6.679,6.679,0,0,0,1.935-2.76,20.05,20.05,0,0,1,6.6-6.585C58.856,53.64,59.411,52.77,60.031,51.955Z" transform="translate(-19.654 -25.706)" fill="#fc358b"/>
    <path id="Path_341" data-name="Path 341" d="M23.005,65.72l2.465.64q-.82,3.19-1.625,6.375l-.69,2.715q-1.06,4.125-2.1,8.245c-.82-.205-1.635-.425-2.455-.615C20.02,77.28,21.52,71.5,23.005,65.72Z" transform="translate(-9.278 -32.861)" fill="#fc358b"/>
    <path id="Path_342" data-name="Path 342" d="M88.75,66.719a31.135,31.135,0,0,0-9.25-11.3,3.483,3.483,0,0,0,.28-2.765,2.455,2.455,0,0,0-1.42-1.235c-.87.705-1.695,1.46-2.575,2.155a5.635,5.635,0,0,0-2-2.21,4.72,4.72,0,0,0-2.655-.5,3.1,3.1,0,0,0-2.185,2c-.32.62-.37,1.325-.64,1.96-.305.295-.695.5-1.025.765a4.19,4.19,0,0,1,.545,3.77,5.4,5.4,0,0,1-3.1,2.63c-.5.195-1.07.215-1.6.37a11.758,11.758,0,0,0-5.955,5,19.88,19.88,0,0,0-1.4,2.5,35.29,35.29,0,0,0-2.4,7A14.9,14.9,0,0,1,52.61,79c-1.36,3.365-2.78,6.705-4.415,9.945A24.9,24.9,0,0,1,45,94.154a10.1,10.1,0,0,0,3.33.295,16.39,16.39,0,0,0,8.67-3.4,1.345,1.345,0,0,0,.5-.36c1.5-.925,2.545-2.39,3.955-3.41v-.045a7.1,7.1,0,0,0,3.28-5.425.649.649,0,0,1,.11-.45,4.65,4.65,0,0,1,3.54-1.605,6.34,6.34,0,0,1,3.425,1.31,15.857,15.857,0,0,1,5.675-5.685,72.046,72.046,0,0,1-8.31.285c-1.575,0-3.15.08-4.72-.065a9.744,9.744,0,0,1-1.5-.235c.715-.735,1.54-1.345,2.3-2.045a21.6,21.6,0,0,0,2.165-2.4,7.785,7.785,0,0,0,1.855-4.78c1.08.065,2.15.25,3.23.355.045-.17.1-.335.135-.5.295-1.55.625-3.09.925-4.635a1.16,1.16,0,0,1,.445-.645,16.685,16.685,0,0,0,2.78-3.585c1.215,1.435,2.395,2.9,3.615,4.33a38.231,38.231,0,0,1,5.6,5.19c.24.37.71.935.28,1.33a10.15,10.15,0,0,0-1.15,1.345c-.36.5-.45,1.12-.82,1.61A4.826,4.826,0,0,0,83.23,73c1.425-.115,1.245-2.135,2.59-2.4.59-.045.6.74.59,1.16a9.6,9.6,0,0,0,.205,3.44,2.34,2.34,0,0,0,1.15,1.695c.055-.2.105-.4.15-.605.15-1.18.34-2.355.5-3.53.125-.86.245-1.72.375-2.58s.255-1.67.355-2.5a4,4,0,0,0-.395-.965Z" transform="translate(-22.478 -25.421)" fill="#fc358b"/>
    <path id="Path_343" data-name="Path 343" d="M128.455,133.87a3.86,3.86,0,0,0,3,.245c.055.2.115.39.185.585a.5.5,0,0,1-.36.22,16,16,0,0,1-3.12-.355c1.09,2.97,1.8,6.115,3.44,8.855A2.555,2.555,0,0,0,132.9,144.7a2.935,2.935,0,0,1,1.365,1.12,1.145,1.145,0,0,1-.545,1.5c-.775-.075-1.54-.205-2.31-.3a2,2,0,0,1-1.43-1.265,11.523,11.523,0,0,1-.68-4.285c-.115-.615-.165-1.435-.795-1.75-.64-.06-1.13.545-1.43,1.035-.26,1.665-.445,3.34-.69,5-.085.27-.445,0-.64,0,.18-.8.295-1.61.5-2.4a10.5,10.5,0,0,0-.18-4.25c-.28-1.635.17-3.635,1.76-4.44C128.17,134.545,128.29,134.17,128.455,133.87Z" transform="translate(-62.848 -66.936)" fill="#fc358b"/>
    <path id="Path_344" data-name="Path 344" d="M74.79,136.58a3.158,3.158,0,0,1,2.72-.225c.4.105.54.56.875.765a3.721,3.721,0,0,0,1.585.525c-.09.16-.175.33-.255.5a3.57,3.57,0,0,1-2.225-1.065c-.145-.1-.295-.36-.5-.22a4.84,4.84,0,0,0-1.14,1.64,8.867,8.867,0,0,0-.67,3.07c-.04,1-.62,1.94-.55,2.97a2.05,2.05,0,0,0,1.5,1.97l.18.055c.275.5.625,1.19.28,1.755-.5.5-1.275.31-1.88.18a23.563,23.563,0,0,1-1.635-2.42c-.465-1.335.145-2.755.74-3.955a4,4,0,0,0,.68-2.16.38.38,0,0,0-.72-.1c-.825,1.455-1.63,2.92-2.465,4.365l-.42-.35c1-1.875,2.12-3.715,3.15-5.585C74.175,137.685,74.235,136.96,74.79,136.58Z" transform="translate(-35.423 -68.081)" fill="#fc358b"/>
    <path id="Path_345" data-name="Path 345" d="M43.17,81.4c1.79.145,3.58.32,5.375.5a19.88,19.88,0,0,0-1.4,2.5c-6.5-.585-12.975-1.04-19.43-1.88l.69-2.715c3.28.38,6.56.73,9.835,1.12.5.09,1.045.18,1.56.305-.615.66-2,.5-2.26,1.5a10.347,10.347,0,0,0,2.455-.5A9.44,9.44,0,0,0,43.17,81.4Z" transform="translate(-13.833 -39.906)" fill="#0e0d0e"/>
    <path id="Path_346" data-name="Path 346" d="M2.1,63.77l.13,1.27a.03.03,0,0,0,0,.03l1.055.72a.035.035,0,0,1,0,.065l-1.27.13-.755,1.07a.035.035,0,0,1-.065,0l-.13-1.27a.03.03,0,0,0,0-.03L-.022,65.02a.035.035,0,0,1-.022-.033.035.035,0,0,1,.022-.033l1.27-.13a.025.025,0,0,0,.025,0L2,63.77a.05.05,0,0,1,.1,0Z" transform="translate(0.044 -31.861)" fill="#f7cea0"/>
    <path id="Path_347" data-name="Path 347" d="M31.254,90.3l.135,1.34,1.1.75a.04.04,0,0,1,0,.07l-1.32.135a.03.03,0,0,0-.03,0l-.75,1.1a.04.04,0,0,1-.07,0l-.135-1.32a.03.03,0,0,0,0-.03l-1.1-.75a.04.04,0,0,1,0-.07l1.325-.13a.05.05,0,0,0,.025,0l.75-1.1a.04.04,0,0,1,.065,0Z" transform="translate(-14.512 -45.145)" fill="#f7cea0"/>
    <text id="_OH" data-name="   OH" transform="translate(78.632 45.014)" font-size="34" font-family="Trajan" font-weight="700"><tspan x="0" y="0" xml:space="preserve">   </tspan><tspan y="0" letter-spacing="-0.01em">O</tspan><tspan y="0">H</tspan></text>
    <text id="Siivous" transform="translate(76.922 69.609)" fill="#fc358b" font-size="22" font-family="Trajan" font-weight="700" letter-spacing="-0.03em"><tspan x="0" y="0">Siivous</tspan></text>
  </g>
</svg>
